<svg xmlns="http://www.w3.org/2000/svg" xmlns:xlink="http://www.w3.org/1999/xlink" width="96" zoomAndPan="magnify" viewBox="0 0 72 72" height="96" preserveAspectRatio="xMidYMid meet" version="1.0"><defs><clipPath id="id1"><path d="M 0 10.304688 L 72 10.304688 L 72 62.054688 L 0 62.054688 Z M 0 10.304688 " clip-rule="nonzero"/></clipPath></defs><g clip-path="url(#id1)"><path fill="#4d4a4d" d="M 7.738281 10.304688 C 3.480469 10.304688 0.0273438 13.773438 0.0273438 18.066406 C 0.125 29.839844 0.03125 42.296875 0.0273438 54.292969 C 0.0273438 58.421875 3.21875 61.765625 7.253906 62.015625 L 64.582031 62.054688 C 68.695312 61.886719 71.96875 58.476562 71.96875 54.292969 L 71.96875 16.734375 C 71.347656 13.074219 68.191406 10.304688 64.382812 10.304688 C 45.511719 10.3125 26.617188 10.304688 7.738281 10.304688 Z M 7.617188 14.386719 L 64.625 14.386719 L 37.042969 42.164062 C 36.539062 42.671875 35.738281 42.671875 35.238281 42.164062 Z M 68.117188 16.371094 L 68.117188 54.007812 C 68.117188 56.253906 67.316406 57.519531 65.707031 57.972656 L 46.277344 38.363281 Z M 4.324219 16.53125 L 25.804688 38.160156 L 6.171875 57.929688 C 4.828125 57.472656 4.359375 56.382812 4.328125 54.898438 L 4.328125 16.53125 Z M 28.535156 40.867188 L 35.238281 47.660156 C 35.742188 48.167969 36.542969 48.167969 37.042969 47.660156 L 43.546875 41.113281 L 60.492188 58.171875 L 11.351562 58.171875 L 28.535156 40.871094 Z M 28.535156 40.867188 " fill-opacity="1" fill-rule="nonzero"/></g></svg>