<svg xmlns="http://www.w3.org/2000/svg" xmlns:xlink="http://www.w3.org/1999/xlink" width="96" zoomAndPan="magnify" viewBox="0 0 72 72" height="96" preserveAspectRatio="xMidYMid meet" version="1.0"><path fill="#4d4a4d" d="M 35.984375 6.492188 C 45.589844 6.492188 46.726562 6.523438 50.53125 6.695312 C 54.03125 6.855469 55.941406 7.4375 57.21875 7.941406 C 58.890625 8.589844 60.089844 9.378906 61.351562 10.640625 C 62.613281 11.902344 63.386719 13.101562 64.050781 14.773438 C 64.539062 16.035156 65.121094 17.945312 65.296875 21.460938 C 65.46875 25.265625 65.5 26.402344 65.5 36.007812 C 65.5 45.617188 65.46875 46.75 65.296875 50.554688 C 65.136719 54.054688 64.554688 55.964844 64.050781 57.242188 C 63.402344 58.914062 62.613281 60.113281 61.351562 61.375 C 60.089844 62.636719 58.890625 63.410156 57.21875 64.074219 C 55.957031 64.5625 54.046875 65.144531 50.53125 65.320312 C 46.726562 65.492188 45.589844 65.523438 35.984375 65.523438 C 26.375 65.523438 25.242188 65.492188 21.4375 65.320312 C 17.9375 65.160156 16.027344 64.578125 14.75 64.074219 C 13.078125 63.425781 11.878906 62.636719 10.617188 61.375 C 9.355469 60.113281 8.582031 58.914062 7.917969 57.242188 C 7.429688 55.980469 6.847656 54.070312 6.671875 50.554688 C 6.5 46.75 6.46875 45.617188 6.46875 36.007812 C 6.46875 26.402344 6.5 25.265625 6.671875 21.460938 C 6.832031 17.960938 7.414062 16.050781 7.917969 14.773438 C 8.566406 13.101562 9.355469 11.902344 10.617188 10.640625 C 11.878906 9.378906 13.078125 8.605469 14.75 7.941406 C 16.011719 7.453125 17.921875 6.871094 21.4375 6.695312 C 25.242188 6.523438 26.375 6.492188 35.984375 6.492188 M 35.984375 0.0078125 C 26.203125 0.0078125 24.988281 0.0546875 21.140625 0.230469 C 17.304688 0.402344 14.6875 1.015625 12.398438 1.902344 C 10.035156 2.816406 8.03125 4.046875 6.027344 6.050781 C 4.039062 8.054688 2.808594 10.058594 1.894531 12.421875 C 1.007812 14.710938 0.394531 17.328125 0.222656 21.164062 C 0.046875 24.996094 0 26.226562 0 35.992188 C 0 45.773438 0.046875 46.988281 0.222656 50.835938 C 0.394531 54.671875 1.007812 57.289062 1.894531 59.578125 C 2.808594 61.941406 4.039062 63.945312 6.042969 65.949219 C 8.046875 67.953125 10.050781 69.183594 12.414062 70.097656 C 14.703125 70.984375 17.320312 71.597656 21.15625 71.769531 C 24.988281 71.945312 26.21875 71.992188 36 71.992188 C 45.78125 71.992188 46.996094 71.945312 50.84375 71.769531 C 54.679688 71.597656 57.296875 70.984375 59.585938 70.097656 C 61.949219 69.183594 63.953125 67.953125 65.957031 65.949219 C 67.960938 63.945312 69.191406 61.941406 70.105469 59.578125 C 70.992188 57.289062 71.605469 54.671875 71.777344 50.835938 C 71.953125 47.003906 72 45.773438 72 35.992188 C 72 26.210938 71.953125 24.996094 71.777344 21.148438 C 71.605469 17.3125 70.992188 14.695312 70.105469 12.40625 C 69.191406 10.042969 67.960938 8.039062 65.957031 6.035156 C 63.953125 4.03125 61.949219 2.800781 59.585938 1.886719 C 57.296875 1 54.679688 0.386719 50.84375 0.214844 C 46.996094 0.0546875 45.765625 0.0078125 35.984375 0.0078125 " fill-opacity="1" fill-rule="nonzero"/><path fill="#4d4a4d" d="M 35.984375 17.519531 C 25.777344 17.519531 17.511719 25.785156 17.511719 35.992188 C 17.511719 46.199219 25.792969 54.480469 36 54.480469 C 46.207031 54.480469 54.488281 46.214844 54.488281 35.992188 C 54.472656 25.785156 46.191406 17.519531 35.984375 17.519531 M 35.984375 47.996094 C 29.359375 47.996094 23.996094 42.632812 23.996094 36.007812 C 23.996094 29.382812 29.359375 24.019531 35.984375 24.019531 C 42.609375 24.019531 47.972656 29.382812 47.972656 36.007812 C 47.988281 42.617188 42.609375 47.996094 35.984375 47.996094 " fill-opacity="1" fill-rule="nonzero"/><path fill="#4d4a4d" d="M 59.519531 16.792969 C 59.519531 19.175781 57.582031 21.117188 55.199219 21.117188 C 52.816406 21.117188 50.875 19.175781 50.875 16.792969 C 50.875 14.410156 52.816406 12.46875 55.199219 12.46875 C 57.582031 12.46875 59.519531 14.394531 59.519531 16.792969 " fill-opacity="1" fill-rule="nonzero"/></svg>